<svg xmlns="http://www.w3.org/2000/svg" width="1280" height="560" viewBox="0 0 1280 560" role="img" aria-labelledby="title desc">
  <title id="title">EDMN Trader evidence-gated workflow</title>
  <desc id="desc">Read-only inputs become normalized books, complement candidates, stressed simulations, controlled paper records, and reconciled Demo evidence.</desc>

  <rect width="1280" height="560" rx="28" fill="#141414"/>

  <g font-family="Inter, 'SF Pro Display', 'Helvetica Neue', Arial, sans-serif">
    <text x="64" y="86" font-size="34" font-weight="600" letter-spacing="-1" fill="#f5f5f5">Evidence-gated workflow</text>
    <line x1="64" y1="118" x2="1216" y2="118" stroke="#303030"/>

    <g transform="translate(62 160)" font-family="ui-monospace, SFMono-Regular, Menlo, Monaco, Consolas, monospace" font-size="15" font-weight="600" text-anchor="middle">
      <g>
        <rect width="174" height="126" fill="#1b1b1b" stroke="#343434"/>
        <text x="87" y="69" fill="#f5f5f5">READ</text>
      </g>
      <path d="M178 63h16m-6-6 6 6-6 6" fill="none" stroke="#59c98b" stroke-width="2"/>

      <g transform="translate(196)">
        <rect width="174" height="126" fill="#1b1b1b" stroke="#343434"/>
        <text x="87" y="69" fill="#f5f5f5">NORMALIZE</text>
      </g>
      <path d="M374 63h16m-6-6 6 6-6 6" fill="none" stroke="#59c98b" stroke-width="2"/>

      <g transform="translate(392)">
        <rect width="174" height="126" fill="#1b1b1b" stroke="#343434"/>
        <text x="87" y="69" fill="#f5f5f5">SCAN</text>
      </g>
      <path d="M570 63h16m-6-6 6 6-6 6" fill="none" stroke="#59c98b" stroke-width="2"/>

      <g transform="translate(588)">
        <rect width="174" height="126" fill="#1b1b1b" stroke="#343434"/>
        <text x="87" y="69" fill="#f5f5f5">SIMULATE</text>
      </g>
      <path d="M766 63h16m-6-6 6 6-6 6" fill="none" stroke="#59c98b" stroke-width="2"/>

      <g transform="translate(784)">
        <rect width="174" height="126" fill="#1b1b1b" stroke="#343434"/>
        <text x="87" y="69" fill="#f5f5f5">CONTROL</text>
      </g>
      <path d="M962 63h16m-6-6 6 6-6 6" fill="none" stroke="#59c98b" stroke-width="2"/>

      <g transform="translate(980)">
        <rect width="174" height="126" fill="#1b1b1b" stroke="#343434"/>
        <text x="87" y="69" fill="#f5f5f5">DEMO</text>
      </g>
    </g>

    <g transform="translate(62 340)">
      <rect width="1154" height="154" fill="#1b1b1b" stroke="#303030"/>
      <text x="24" y="44" font-size="24" font-weight="600" fill="#f5f5f5">Control plane</text>

      <g transform="translate(78 79)" font-family="ui-monospace, SFMono-Regular, Menlo, Monaco, Consolas, monospace" font-size="13" text-anchor="middle">
        <g><rect width="190" height="42" fill="#181818" stroke="#383838"/><text x="95" y="26" fill="#bdbdbd">DECIMAL</text></g>
        <g transform="translate(202)"><rect width="190" height="42" fill="#181818" stroke="#383838"/><text x="95" y="26" fill="#bdbdbd">HASHES</text></g>
        <g transform="translate(404)"><rect width="190" height="42" fill="#181818" stroke="#383838"/><text x="95" y="26" fill="#bdbdbd">KILL SWITCH</text></g>
        <g transform="translate(606)"><rect width="190" height="42" fill="#181818" stroke="#383838"/><text x="95" y="26" fill="#bdbdbd">APPROVAL</text></g>
        <g transform="translate(808)"><rect width="190" height="42" fill="#181818" stroke="#383838"/><text x="95" y="26" fill="#bdbdbd">7 / 30 / 90D</text></g>
      </g>
    </g>
  </g>
</svg>
